<?xml version="1.0" encoding="UTF-8" standalone="no"?>
<!DOCTYPE svg PUBLIC "-//W3C//DTD SVG 1.1//EN" "http://www.w3.org/Graphics/SVG/1.1/DTD/svg11.dtd">
<svg width="100%" height="100%" viewBox="0 0 350 175" version="1.1" xmlns="http://www.w3.org/2000/svg" xmlns:xlink="http://www.w3.org/1999/xlink" xml:space="preserve">
  <defs id="SvgjsDefs1203"></defs>
  <g id="SvgjsG1204" featurekey="7KWit6-0" transform="matrix(1.6085173382949667,0,0,1.6085173382949667,122.3896334226882,7.975185419165081)" fill="#ffffff">
    <g xmlns="http://www.w3.org/2000/svg">
      <path
        d="M36.522,46.003c0.219,0.215,0.447,0.397,0.677,0.57c-0.096,0.038-0.184,0.097-0.242,0.192
        c-1.541,2.481-2.092,5.449-1.51,8.143c0.613,2.844,2.552,5.35,5.057,6.54c1.14,0.541,2.379,0.808,3.606,0.808
        c1.65,0,3.278-0.482,4.608-1.426c1.276-0.905,2.147-2.133,2.453-3.46c0.022-0.097,0.032-0.193,0.048-0.289
        c2.13,0.599,4.392-0.318,5.884-1.704c1.163-1.079,1.957-2.43,2.237-3.805c0.195-0.96,0.136-1.941-0.147-2.823
        c0.035-0.016,0.074-0.012,0.106-0.036c3.176-2.469,5.287-6.336,5.648-10.344c0.165-1.845-0.065-3.442-0.688-4.749
        c-0.581-1.219-1.544-2.183-2.649-2.7c1.2-1.756,1.623-3.877,1.202-6.172c-0.408-2.222-1.747-4.254-3.608-5.535
        c0.47-0.707,0.842-1.479,1.059-2.306c1.471-5.597-3.493-11-9.359-9.706c-1.93-3.747-6.863-4.34-10.307-2.286
        c-2.358,1.406-4.15,3.985-4.917,7.076c-0.695,2.797-0.532,5.822,0.453,8.531c-0.049,0.06-0.104,0.113-0.148,0.18
        C32.489,26.117,33.884,43.412,36.522,46.003z M36.273,16.069l0.451,0.451l-0.389,0.389C36.307,16.629,36.284,16.349,36.273,16.069z
        M37.437,20.717c0.006,0.008,0.004,0.02,0.011,0.027l0.986,0.986l-0.526,0.526l-1.051-1.05
        C36.999,21.007,37.208,20.849,37.437,20.717z M36.593,21.648l0.962,0.962l-1.185,1.185c-0.009,0.009-0.006,0.021-0.013,0.031
        l-0.451-0.45C36.103,22.721,36.331,22.139,36.593,21.648z M35.406,26.416l0.39,0.39l-0.647,0.647
        c0.134-1.285,0.333-2.48,0.604-3.527l1.462,1.462l-1.065,1.064l-0.39-0.39c-0.098-0.098-0.256-0.098-0.354,0
        C35.309,26.16,35.309,26.319,35.406,26.416z M34.957,30.54c-0.002-0.002-0.005-0.001-0.007-0.003
        c0.021-0.708,0.056-1.406,0.108-2.087l0.994,0.994L34.957,30.54z M40.724,60.427l0.313-0.313l0.774,0.774
        c-0.3-0.096-0.594-0.21-0.878-0.346C40.861,60.509,40.795,60.464,40.724,60.427z M43.227,57.827l1.098,1.098l-0.877,0.877
        l-1.049-1.049l0.759-0.759C43.204,57.947,43.224,57.887,43.227,57.827z M45.884,58.072l1.196,1.197l-0.852,0.852l-1.196-1.196
        L45.884,58.072z M46.819,60.711l-0.237-0.237l0.852-0.852l0.509,0.509C47.59,60.361,47.214,60.553,46.819,60.711z M46.301,60.9
        c-0.065,0.02-0.133,0.035-0.199,0.054l0.127-0.127L46.301,60.9z M45.875,60.474l-0.512,0.512c-0.04,0.04-0.053,0.093-0.06,0.146
        c-0.277,0.045-0.556,0.077-0.838,0.091c0.011-0.008,0.027-0.005,0.037-0.015c0.098-0.098,0.098-0.256,0-0.354l-0.7-0.699
        l0.877-0.877L45.875,60.474z M43.095,60.155l-0.655,0.655l-1.049-1.049l0.655-0.655L43.095,60.155z M42.825,61.131l0.623-0.623
        l0.699,0.7c0.012,0.012,0.031,0.009,0.045,0.019C43.736,61.232,43.278,61.208,42.825,61.131z M49.951,57.854
        c-0.012-0.038-0.015-0.079-0.045-0.109l-0.297-0.297l0.643-0.643c-0.016,0.113-0.03,0.226-0.056,0.339
        C50.14,57.386,50.052,57.622,49.951,57.854z M48.673,56.513l0.877-0.877l0.365,0.364c0.097,0.097,0.255,0.098,0.354,0
        c0.013-0.013,0.01-0.033,0.02-0.048c0.007,0.139,0.008,0.279,0.002,0.421c-0.098-0.076-0.236-0.079-0.326,0.011l-0.709,0.709
        L48.673,56.513z M53.697,54.804c0.098-0.098,0.098-0.256,0-0.354l-0.152-0.152l0.34-0.34c0.089-0.089,0.086-0.223,0.013-0.321
        l0.834,0.833l-1.562,1.562c0.023-0.084,0.018-0.172-0.048-0.238l-0.537-0.537l0.606-0.606
        C53.357,54.818,53.512,54.989,53.697,54.804z M55.086,54.825l0.477,0.477c-0.533,0.349-1.129,0.633-1.756,0.803L55.086,54.825z
        M52.232,54.905l-0.709-0.709c-0.098-0.098-0.256-0.098-0.354,0c-0.098,0.098-0.098,0.256,0,0.354l0.116,0.116
        c-0.016,0.033-0.042,0.061-0.042,0.101c0,0.138,0.112,0.25,0.25,0.25h0.05c0.027,0,0.041-0.021,0.064-0.029l0.271,0.271
        l-0.596,0.596c-0.057-0.932-0.328-1.776-0.619-2.431c0.097-0.112,0.481-0.587,0.628-0.606c0.105-0.005,0.423,0.321,0.55,0.466
        c0.182,0.21,0.783,0.801,0.997,1.016L52.232,54.905z M51.666,56.178l0.566-0.566l0.537,0.537c0.095,0.095,0.152,0.071,0.238,0.048
        l-0.057,0.057C52.52,56.293,52.089,56.275,51.666,56.178z M58.792,47.83c-0.12-0.215-0.251-0.423-0.403-0.615l0.42-0.421
        l0.546,0.546C59.17,47.506,58.986,47.675,58.792,47.83z M59.734,47.012l-0.571-0.571l0.873-0.873l0.542,0.542
        C60.308,46.422,60.03,46.726,59.734,47.012z M63.489,40.668c0.002,0.002,0.005,0.001,0.007,0.003
        c-0.12,0.428-0.261,0.848-0.421,1.263l-0.598-0.598l0.84-0.84L63.489,40.668z M62.799,42.365l0.009,0.009
        c0.024,0.024,0.057,0.024,0.086,0.036c-0.218,0.508-0.472,0.999-0.748,1.479l-0.433-0.432l1.079-1.079
        C62.798,42.375,62.796,42.369,62.799,42.365z M58.12,33.547c0.097,0.097,0.255,0.098,0.353,0l0.527-0.527l0.833,0.834l-0.894,0.894
        l-1.726-1.726c0.184-0.377,0.472-0.703,0.834-0.955l0.599,0.6l-0.527,0.527C58.023,33.291,58.023,33.449,58.12,33.547z
        M57.603,34.117l0.984,0.984l-0.431,0.431C58.048,35.011,57.865,34.531,57.603,34.117z M56.879,31.754l-0.206-0.206l0.81-0.809
        l0.305,0.305C57.449,31.237,57.14,31.475,56.879,31.754z M56.569,32.15c-0.152,0.218-0.285,0.448-0.379,0.698
        c-0.19-0.089-0.39-0.161-0.598-0.219l0.728-0.728L56.569,32.15z M58.223,30.838c-0.011-0.04-0.016-0.082-0.047-0.113l-0.339-0.339
        l0.303-0.303l0.676-0.676L59.2,29.79l-0.079,0.079c-0.098,0.098-0.098,0.256,0,0.354c0.097,0.097,0.255,0.098,0.354,0l0.079-0.079
        l0.37,0.37C59.331,30.497,58.753,30.615,58.223,30.838z M60.617,30.5l-0.71-0.71l0.894-0.894l0.531,0.531
        c-0.187,0.394-0.422,0.771-0.69,1.135C60.632,30.541,60.634,30.517,60.617,30.5z M59.553,29.436l-0.384-0.384l0.894-0.894
        l0.384,0.384L59.553,29.436z M61.484,23.71l-0.471-0.471l0.191-0.191C61.308,23.264,61.401,23.484,61.484,23.71z M61.776,24.709
        c0.016,0.073,0.039,0.144,0.052,0.217c0.097,0.53,0.143,1.043,0.145,1.541l-1.016-1.017l0.781-0.781L61.776,24.709z M55.105,23.06
        l-0.518-0.518c0.053-0.013,0.104-0.019,0.158-0.033c0.303-0.085,0.597-0.193,0.886-0.314l0.137,0.137l-0.617,0.618
        C55.121,22.979,55.117,23.021,55.105,23.06z M56.107,21.963c0.02-0.01,0.041-0.021,0.061-0.031l-0.046,0.046L56.107,21.963z
        M54.476,21.545c-0.578,0.16-1.263,0.227-1.872,0.099l0.372-0.372l0.328,0.329c0.099,0.099,0.257,0.096,0.354,0
        c0.098-0.098,0.098-0.256,0-0.354l-0.328-0.328l0.689-0.689l0.951,0.951c0.097,0.097,0.255,0.098,0.354,0
        c0.033-0.033,0.039-0.077,0.049-0.119c0.054-0.006,0.108-0.021,0.149-0.062l0.865-0.865l0.306,0.305
        C56.026,20.935,55.279,21.321,54.476,21.545z M55.249,18.999l0.783,0.783l-0.865,0.865c-0.005,0.005-0.003,0.013-0.008,0.018
        l-0.788-0.789L55.249,18.999z M57.082,20.125l-0.343-0.343l0.847-0.847l0.336,0.336C57.666,19.58,57.386,19.865,57.082,20.125z
        M59.362,13.563l-0.475-0.475l0.281-0.281C59.247,13.055,59.311,13.307,59.362,13.563z M53.755,8.284
        c-0.012-0.038-0.015-0.078-0.045-0.108c-0.03-0.03-0.07-0.033-0.107-0.045l-0.059-0.059c0.344,0.048,0.683,0.129,1.017,0.226
        c0.011,0.02,0.008,0.044,0.025,0.061l0.201,0.201l-0.377,0.377L53.755,8.284z M52.865,8.021c0.008,0.049,0.019,0.099,0.057,0.137
        l0.226,0.226l-0.63,0.63L51.59,8.085C52.013,8.023,52.439,8.003,52.865,8.021z M45.536,4.791c0.01,0.017,0.007,0.038,0.022,0.053
        l0.194,0.194c-0.045,0.01-0.092,0.018-0.128,0.053l-0.725,0.725l-1.006-1.006C44.446,4.737,44.996,4.738,45.536,4.791z
        M39.408,7.137l1.549,1.549c0.097,0.097,0.255,0.098,0.354,0c0.098-0.098,0.098-0.256,0-0.354l-1.544-1.544
        c0.393-0.36,0.81-0.68,1.251-0.952l0.787,0.787l-0.682,0.682c-0.098,0.098-0.098,0.256,0,0.353c0.099,0.099,0.257,0.096,0.354,0
        l0.682-0.682L42.91,7.73c0.097,0.097,0.255,0.098,0.354,0c0.098-0.098,0.098-0.256,0-0.353L42.51,6.623l1.004-1.004
        c0.098-0.098,0.098-0.256,0-0.353c-0.097-0.097-0.255-0.099-0.353,0L42.157,6.27l-0.681-0.682c0.586-0.306,1.202-0.528,1.833-0.665
        c0.004,0.005,0.002,0.012,0.007,0.016l1.23,1.23l-0.42,0.42c-0.098,0.098-0.098,0.256,0,0.353c0.097,0.097,0.255,0.098,0.353,0
        l0.42-0.42l0.393,0.393c0.097,0.097,0.255,0.098,0.353,0c0.098-0.098,0.098-0.256,0-0.354L45.253,6.17l0.725-0.725
        c0.035-0.035,0.043-0.082,0.053-0.128l0.77,0.771c0.099,0.099,0.257,0.096,0.354,0c0.098-0.098,0.098-0.256,0-0.353l-0.813-0.813
        c4.195,0.942,5.167,5.441,3.493,7.752c-0.162,0.224-0.111,0.537,0.112,0.698c0.221,0.162,0.535,0.113,0.698-0.111
        c0.474-0.655,0.765-1.41,0.895-2.199l0.374,0.374l-0.604,0.605c-0.098,0.098-0.098,0.256,0,0.353c0.097,0.097,0.255,0.098,0.354,0
        l0.604-0.604l0.402,0.402c0.097,0.097,0.255,0.098,0.354,0c0.098-0.098,0.098-0.256,0-0.354l-0.402-0.402l0.786-0.786
        c0.098-0.098,0.098-0.256,0-0.354c-0.098-0.098-0.256-0.098-0.354,0l-0.786,0.786l-0.66-0.66c0.031-0.592-0.026-1.193-0.168-1.78
        l0.726,0.726l-0.05,0.05c-0.098,0.098-0.098,0.256,0,0.353c0.097,0.097,0.255,0.098,0.354,0l0.05-0.05l0.409,0.409
        c0.097,0.097,0.255,0.098,0.354,0c0.098-0.098,0.098-0.256,0-0.353l-0.409-0.409l0.63-0.63l0.564,0.564
        c-0.07,0.098-0.073,0.23,0.015,0.318c0.085,0.085,0.196,0.102,0.318,0.015l0.095,0.095c0.097,0.097,0.255,0.098,0.354,0
        c0.098-0.098,0.098-0.256,0-0.354l-0.085-0.085l0.377-0.377l0.561,0.561c0.097,0.097,0.255,0.098,0.354,0
        c0.098-0.098,0.098-0.256,0-0.354l-0.39-0.389c1.598,0.776,2.691,1.987,3.323,3.546l-0.456,0.456l-0.171-0.171
        c-0.098-0.098-0.256-0.098-0.354,0c-0.098,0.098-0.098,0.256,0,0.353l0.171,0.171l-0.107,0.108c-0.098,0.098-0.098,0.256,0,0.353
        c0.096,0.096,0.255,0.099,0.354,0l0.107-0.107l0.944,0.944c0.061,0.758,0.014,1.525-0.18,2.265
        c-0.001,0.004-0.003,0.007-0.004,0.01c-0.004-0.004-0.002-0.011-0.006-0.015l-1.032-1.032l0.865-0.865
        c0.098-0.098,0.098-0.256,0-0.354c-0.098-0.098-0.256-0.098-0.354,0l-0.873,0.873c-0.098-0.077-0.237-0.079-0.327,0.011
        c-0.09,0.09-0.088,0.229-0.011,0.327l-0.368,0.368c-0.098,0.098-0.098,0.256,0,0.354c0.097,0.097,0.255,0.098,0.354,0l0.36-0.36
        l1.032,1.032c0.049,0.049,0.112,0.073,0.177,0.073c0.019,0,0.033-0.017,0.051-0.021c-0.217,0.652-0.53,1.266-0.93,1.823
        l-0.292-0.293l0.682-0.682c0.098-0.098,0.098-0.256,0-0.353c-0.098-0.098-0.256-0.098-0.354,0l-0.682,0.682L56.657,17.3
        c-0.098-0.098-0.256-0.098-0.354,0c-0.098,0.098-0.098,0.256,0,0.354l0.929,0.928l-0.847,0.847l-0.783-0.784l0.374-0.374
        c0.098-0.098,0.098-0.256,0-0.354c-0.098-0.098-0.256-0.098-0.353,0l-0.382,0.382c-0.097-0.076-0.236-0.08-0.327,0.011
        c-0.09,0.09-0.088,0.229-0.011,0.327l-0.886,0.886l-0.455-0.455c-0.098-0.098-0.256-0.098-0.353,0
        c-0.098,0.098-0.098,0.256,0,0.354l0.455,0.455l-0.688,0.689l-0.36-0.36c-0.097-0.097-0.255-0.098-0.354,0
        c-0.098,0.098-0.098,0.256,0,0.354l0.36,0.361l-0.486,0.486c-0.022,0.022-0.021,0.052-0.033,0.079
        c-0.22-0.101-0.421-0.237-0.585-0.421c-0.185-0.206-0.501-0.222-0.706-0.038c-0.206,0.185-0.223,0.501-0.038,0.706
        c0.792,0.881,2.036,1.108,3.23,0.934l1.376,1.377c0.099,0.099,0.257,0.096,0.353,0c0.098-0.098,0.098-0.256,0-0.354l-0.34-0.34
        c0.039-0.011,0.081-0.015,0.111-0.046l0.617-0.617l0.245,0.245c0.097,0.097,0.255,0.098,0.354,0c0.098-0.098,0.098-0.256,0-0.354
        l-0.245-0.245l0.395-0.395c0.098-0.098,0.098-0.256,0-0.353c-0.014-0.014-0.034-0.011-0.05-0.021
        c0.318-0.204,0.618-0.431,0.905-0.677l0.085,0.085l-0.675,0.674c-0.098,0.098-0.098,0.256,0,0.354c0.099,0.099,0.257,0.096,0.354,0
        l0.674-0.674l0.403,0.403c0.099,0.099,0.257,0.096,0.354,0c0.098-0.098,0.098-0.256,0-0.354l-0.404-0.405
        c0.092-0.098,0.093-0.251-0.003-0.347c-0.095-0.095-0.248-0.096-0.347-0.003l-0.067-0.067c0.178-0.172,0.342-0.356,0.503-0.544
        c0.972,0.66,1.785,1.548,2.364,2.572l-0.306,0.306l-0.277-0.277c-0.097-0.097-0.255-0.098-0.354,0
        c-0.098,0.098-0.098,0.256,0,0.354l0.277,0.277l-0.05,0.05c-0.098,0.098-0.098,0.256,0,0.354c0.097,0.097,0.255,0.099,0.354,0
        l0.05-0.05l0.724,0.724l-0.781,0.781l-0.164-0.163c-0.097-0.097-0.255-0.098-0.354,0c-0.098,0.098-0.098,0.256,0,0.354l0.164,0.164
        l-0.277,0.277c-0.098,0.098-0.098,0.256,0,0.353c0.097,0.097,0.255,0.098,0.354,0l0.277-0.277l1.338,1.338
        c-0.055,0.622-0.19,1.216-0.403,1.782l-0.383-0.383l0.282-0.282c0.098-0.098,0.098-0.256,0-0.354c-0.098-0.098-0.256-0.098-0.353,0
        l-0.282,0.282l-0.384-0.384l0.028-0.028c0.098-0.098,0.098-0.256,0-0.354c-0.098-0.098-0.256-0.098-0.354,0l-0.028,0.028
        l-0.476-0.476c-0.098-0.098-0.256-0.098-0.354,0c-0.098,0.098-0.098,0.256,0,0.354l0.476,0.476l-0.894,0.894l-0.079-0.079
        c-0.098-0.098-0.256-0.098-0.354,0c-0.098,0.098-0.098,0.256,0,0.354l0.079,0.079l-0.676,0.676l-0.303,0.303l-0.504-0.504
        c-0.098-0.098-0.256-0.098-0.353,0c-0.098,0.098-0.098,0.256,0,0.354l0.504,0.504l-0.81,0.809l-0.192-0.192
        c-0.098-0.098-0.256-0.098-0.354,0c-0.098,0.098-0.098,0.256,0,0.354l0.192,0.192l-0.873,0.872
        c-0.027,0.027-0.029,0.065-0.041,0.099c-1.941-0.275-3.557,0.684-5.2,1.716c-0.233,0.147-0.304,0.456-0.156,0.689
        c0.147,0.236,0.457,0.304,0.689,0.157c0.948-0.597,1.929-1.213,2.998-1.483c2.323-0.588,4.019,0.748,3.891,3.19
        c-0.058,1.085-0.461,2.151-0.851,3.182c-0.098,0.258,0.032,0.547,0.291,0.645c0.254,0.097,0.545-0.029,0.645-0.291
        c0.397-1.051,0.849-2.242,0.913-3.483c0.012-0.235-0.014-0.46-0.032-0.687c0.815-0.815,1.003-1.003,2.165-2.165
        c0.098-0.098,0.098-0.256,0-0.354c-0.038-0.038-0.089-0.049-0.138-0.057l-0.912-0.913l0.485-0.485c0.098-0.098,0.098-0.256,0-0.354
        c-0.098-0.098-0.256-0.098-0.354,0l-0.485,0.485l-0.503-0.504c0.549-0.257,1.184-0.37,1.801-0.266c0.001,0,0.002,0.001,0.004,0.001
        l0.458,0.458l-0.507,0.507c-0.098,0.098-0.098,0.256,0,0.354c0.097,0.097,0.255,0.098,0.354,0l0.508-0.507l0.71,0.71
        c0.097,0.097,0.255,0.098,0.354,0c0.098-0.098,0.098-0.256,0-0.354l-0.576-0.576c0.025-0.011,0.048-0.027,0.073-0.041
        c0.693,0.45,1.29,1.13,1.683,1.954c0.463,0.975,0.661,2.164,0.621,3.522c-0.019,0.011-0.042,0.008-0.058,0.024l-0.19,0.19
        l-0.287-0.287c-0.097-0.097-0.255-0.099-0.354,0c-0.098,0.098-0.098,0.256,0,0.354l0.287,0.287l-0.387,0.387
        c-0.098,0.098-0.098,0.256,0,0.354c0.097,0.097,0.255,0.098,0.354,0l0.387-0.387l0.073,0.074c0.027,0.027,0.065,0.029,0.099,0.041
        c-0.059,0.506-0.149,1.007-0.266,1.505l-0.625-0.625c-0.098-0.099-0.256-0.097-0.354,0c-0.098,0.098-0.098,0.256,0,0.354
        l0.304,0.304l-0.84,0.84l-0.039-0.039c-0.098-0.098-0.256-0.098-0.354,0c-0.098,0.098-0.098,0.256,0,0.354l0.039,0.039
        l-0.105,0.105c-0.098,0.098-0.098,0.256,0,0.354c0.097,0.097,0.255,0.098,0.353,0l0.105-0.105l0.33,0.33
        c-0.004,0.003-0.009,0.002-0.013,0.005l-1.079,1.079l-0.337-0.337c-0.099-0.098-0.257-0.097-0.354,0
        c-0.098,0.098-0.098,0.256,0,0.354l0.337,0.337l-0.602,0.602c-0.098,0.098-0.098,0.256,0,0.354c0.097,0.097,0.255,0.098,0.354,0
        l0.602-0.602l0.472,0.472c0.016,0.016,0.04,0.014,0.059,0.024c-0.305,0.491-0.634,0.965-0.995,1.415l-0.613-0.612
        c-0.012-0.035-0.014-0.073-0.042-0.101c-0.028-0.028-0.066-0.03-0.102-0.042l-0.243-0.243c-0.099-0.099-0.257-0.097-0.354,0
        c-0.098,0.098-0.098,0.256,0,0.354l0.138,0.138l-0.873,0.873l-0.006-0.006c-0.098-0.098-0.256-0.098-0.354,0
        c-0.098,0.098-0.098,0.256,0,0.354l0.006,0.006l-0.404,0.404c-0.206-0.206-0.43-0.388-0.668-0.548l1.503-1.503
        c0.098-0.098,0.098-0.256,0-0.354c-0.097-0.097-0.255-0.098-0.354,0l-1.592,1.592c-0.862-0.443-1.849-0.601-2.765-0.395
        c-0.27,0.061-0.438,0.329-0.377,0.598c0.061,0.269,0.326,0.438,0.598,0.377c1.541-0.35,3.707,0.658,4.006,3.292l-0.631-0.63
        c-0.098-0.099-0.256-0.097-0.353,0c-0.098,0.098-0.098,0.256,0,0.354l0.745,0.745c0.104,0.104,0.194,0.08,0.292,0.026
        c0.001,0.322-0.029,0.648-0.095,0.972c-0.009,0.043-0.028,0.084-0.038,0.127l-0.944-0.943c-0.098-0.098-0.256-0.098-0.354,0
        c-0.098,0.098-0.098,0.256,0,0.354l1.135,1.134c-0.171,0.488-0.419,0.961-0.731,1.415c0.092-0.098,0.093-0.25-0.003-0.346
        l-1.129-1.129c-0.098-0.098-0.256-0.098-0.353,0c-0.098,0.098-0.098,0.256,0,0.354l1.129,1.129
        c0.094,0.094,0.248,0.101,0.351,0.001c-0.286,0.415-0.61,0.816-0.999,1.177c-0.138,0.128-0.29,0.249-0.444,0.369l-0.54-0.54
        l1.089-1.089c0.098-0.098,0.098-0.256,0-0.354c-0.098-0.098-0.256-0.098-0.354,0l-1.089,1.089l-1.004-1.004
        c-0.098-0.098-0.256-0.098-0.354,0c-0.098,0.098-0.098,0.256,0,0.354l0.125,0.125c-0.098-0.072-0.232-0.075-0.321,0.014l-0.34,0.34
        c-0.179-0.179-0.812-0.803-0.973-0.99c-0.267-0.305-0.6-0.678-0.989-0.634c-0.298,0.038-0.566,0.336-0.807,0.619
        c-0.591-1.142-1.38-2.153-2.091-3.047c1.002-1.303,1.365-3.093,0.897-4.674c-0.079-0.265-0.354-0.416-0.622-0.337
        c-0.265,0.079-0.415,0.357-0.337,0.622c0.969,3.267-2.211,6.282-5.425,5.142c-0.256-0.092-0.546,0.045-0.638,0.304
        c-0.093,0.26,0.043,0.546,0.304,0.639c1.718,0.61,3.713,0.225,5.116-0.973c0.721,0.905,1.518,1.922,2.049,3.045
        c0.25,0.526,0.502,1.22,0.591,1.984l-0.394-0.394c0.026-0.086,0.023-0.177-0.045-0.245c-0.068-0.068-0.159-0.071-0.245-0.045
        l-0.716-0.716c-0.098-0.098-0.256-0.098-0.354,0c-0.098,0.098-0.098,0.256,0,0.354l0.684,0.684L48.32,56.16l-0.045-0.045
        c-0.098-0.098-0.256-0.098-0.353,0c-0.098,0.098-0.098,0.256,0,0.354l0.045,0.045l-0.389,0.389c-0.098,0.098-0.098,0.256,0,0.354
        c0.097,0.097,0.255,0.098,0.354,0l0.389-0.389l0.604,0.604c-0.043,0.093-0.045,0.201,0.032,0.277
        c0.107,0.107,0.184,0.075,0.277,0.032l0.319,0.319c0.049,0.049,0.112,0.073,0.177,0.073c0.027,0,0.049-0.022,0.075-0.031
        c-0.331,0.628-0.824,1.204-1.451,1.694l-0.566-0.565l0.99-0.99c0.098-0.098,0.098-0.256,0-0.354c-0.098-0.098-0.256-0.098-0.354,0
        l-0.989,0.989l-1.196-1.197l0.237-0.237c0.098-0.098,0.098-0.256,0-0.354c-0.098-0.098-0.256-0.098-0.354,0l-0.269,0.269
        c-0.085-0.025-0.176-0.021-0.243,0.046c-0.067,0.067-0.071,0.158-0.046,0.243l-0.884,0.885l-1.127-1.127
        c-0.098-0.098-0.256-0.098-0.354,0c-0.05,0.05-0.072,0.117-0.071,0.183c-0.098-0.073-0.233-0.076-0.322,0.013l-0.759,0.759
        l-0.315-0.315c-0.097-0.097-0.255-0.099-0.354,0c-0.098,0.098-0.098,0.256,0,0.354l0.315,0.315l-0.655,0.655l-0.586-0.586
        c-0.098-0.098-0.256-0.098-0.354,0c-0.098,0.098-0.098,0.256,0,0.354l0.586,0.586l-0.414,0.414
        c-1.905-1.16-3.352-3.192-3.847-5.479c-0.527-2.443-0.023-5.142,1.383-7.405c0.056-0.09,0.071-0.191,0.065-0.29
        c3.243,1.798,5.514-0.674,7.3-3.772c0.138-0.239,0.056-0.545-0.184-0.683c-0.24-0.139-0.546-0.057-0.684,0.184
        c-0.523,0.909-1.065,1.85-1.788,2.587c-1.62,1.654-3.519,1.718-5.293-0.028c-1.132-1.111-2.011-5.76-2.237-10.781l0.257-0.257
        l0.001,0.001c0.097,0.097,0.255,0.098,0.353,0c0.098-0.098,0.098-0.256,0-0.353l-0.001-0.001l1.079-1.079
        c0.098-0.098,0.098-0.256,0-0.354c-0.098-0.098-0.256-0.098-0.354,0l-1.079,1.079l-0.301-0.301
        c-0.015-0.658-0.017-1.318-0.008-1.972l0.026-0.026l0.681,0.68c0.097,0.097,0.255,0.098,0.353,0c0.098-0.098,0.098-0.256,0-0.353
        l-0.68-0.68l1.217-1.217c0.025-0.012,0.054-0.01,0.075-0.031c0.021-0.021,0.019-0.05,0.031-0.075l0.352-0.352
        c0.098-0.098,0.098-0.256,0-0.354c-0.097-0.097-0.255-0.099-0.354,0l-0.228,0.228l-1.093-1.093l0.838-0.837l0.516,0.516
        c0.097,0.097,0.255,0.098,0.353,0c0.098-0.098,0.098-0.256,0-0.353l-0.516-0.516l1.065-1.064l0.062,0.062
        c0.097,0.097,0.255,0.098,0.354,0c0.098-0.098,0.098-0.256,0-0.354l-0.062-0.062l0.023-0.023c0.098-0.098,0.098-0.256,0-0.354
        c-0.098-0.097-0.256-0.099-0.354,0l-0.023,0.023l-0.875-0.875c0.009-0.007,0.022-0.004,0.031-0.013l1.185-1.185l0.322,0.322
        c0.097,0.097,0.255,0.098,0.354,0c0.098-0.098,0.098-0.256,0-0.354l-0.322-0.322l0.526-0.525l0.366,0.366
        c0.099,0.099,0.257,0.096,0.354,0c0.098-0.098,0.098-0.256,0-0.354l-1.61-1.611c0.487-0.214,1.042-0.274,1.6-0.2
        c-0.02,0.082-0.014,0.168,0.05,0.232l0.078,0.078l-0.192,0.192c-0.098,0.098-0.098,0.256,0,0.354c0.097,0.097,0.255,0.098,0.354,0
        l0.192-0.192l1.166,1.165c0.097,0.097,0.255,0.098,0.354,0c0.098-0.098,0.098-0.256,0-0.354l-1.166-1.165l0.065-0.065
        c0.641,0.253,1.239,0.669,1.68,1.235c0.917,1.178,1.28,2.906,0.997,4.741c-0.042,0.272,0.145,0.528,0.418,0.57
        c0.271,0.04,0.528-0.145,0.57-0.418c0.084-0.547,0.115-1.086,0.099-1.61l0.223-0.223l0.223,0.223c0.096,0.096,0.255,0.099,0.354,0
        c0.098-0.098,0.098-0.256,0-0.354l-0.223-0.223l0.639-0.639c0.098-0.098,0.098-0.256,0-0.354c-0.098-0.098-0.256-0.098-0.354,0
        l-0.639,0.639l-0.373-0.373c-0.004-0.019-0.006-0.04-0.01-0.059l0.985-0.984c0.098-0.098,0.098-0.256,0-0.354
        c-0.098-0.097-0.256-0.099-0.354,0l-0.778,0.777c-0.088-0.296-0.191-0.584-0.316-0.856l0.164,0.164
        c0.097,0.097,0.255,0.098,0.353,0c0.098-0.098,0.098-0.256,0-0.354l-0.302-0.302l0.756-0.756l0.125,0.125
        c0.099,0.099,0.257,0.096,0.354,0c0.098-0.098,0.098-0.256,0-0.354l-0.125-0.125l0.173-0.173c0.098-0.098,0.098-0.256,0-0.354
        c-0.098-0.098-0.256-0.098-0.354,0l-0.173,0.173l-0.545-0.545l0.456-0.358l0.971,0.971l-0.267,0.267
        c-0.098,0.098-0.098,0.256,0,0.353c0.097,0.097,0.255,0.098,0.353,0l0.297-0.297c0.026,0.009,0.047,0.031,0.074,0.031
        c0.063,0,0.128-0.024,0.177-0.073c0.069-0.069,0.072-0.164,0.042-0.251l0.043-0.043c0.098-0.098,0.098-0.256,0-0.354
        c-0.098-0.098-0.256-0.098-0.354,0l-0.013,0.013l-0.928-0.928l0.214-0.167c0.026-0.02,0.052-0.057,0.076-0.101
        c0.07,0.111,0.14,0.222,0.222,0.33c0.797,1.057,2.032,1.705,3.241,1.705c0.027,0,0.054-0.001,0.08-0.001
        c0.276-0.007,0.495-0.236,0.488-0.512c-0.007-0.276-0.198-0.473-0.512-0.488c-0.92,0.016-1.875-0.478-2.499-1.305
        c-0.565-0.75-0.882-1.779-0.892-2.898c-0.008-0.927,0.178-1.935,0.584-3.171c0.087-0.262-0.056-0.545-0.318-0.631
        c-0.262-0.087-0.544,0.057-0.631,0.319c-0.442,1.343-0.644,2.453-0.635,3.493c0.005,0.639,0.104,1.476,0.44,2.316
        c-0.132,0.031-0.258,0.101-0.341,0.222l-2.505,1.962c-1.304-0.93-2.994-1.205-4.356-0.596c-0.168,0.075-0.341,0.164-0.513,0.261
        c-0.249-0.748-0.434-1.517-0.55-2.299l1.897-1.896c0.098-0.098,0.098-0.256,0-0.354c-0.097-0.097-0.255-0.099-0.354,0l-0.878,0.878
        l-0.819-0.818c0.003-0.266,0.019-0.531,0.037-0.796c0.005,0.007,0.003,0.016,0.009,0.022c0.097,0.097,0.256,0.098,0.354,0
        l0.658-0.658l0.373,0.373c0.099,0.099,0.257,0.096,0.354,0c0.098-0.098,0.098-0.256,0-0.354l-0.373-0.373l1.628-1.628
        c0.098-0.098,0.098-0.256,0-0.354c-0.098-0.098-0.256-0.098-0.354,0l-0.197,0.197l-1.054-1.054c0.01,0.001,0.018,0.012,0.028,0.012
        c0.064,0,0.128-0.024,0.177-0.073l1.278-1.278l0.621,0.621c0.097,0.097,0.255,0.098,0.354,0c0.098-0.098,0.098-0.256,0-0.354
        L39.53,9.032l0.491-0.491c0.098-0.098,0.098-0.256,0-0.353c-0.097-0.097-0.255-0.099-0.353,0l-0.491,0.491l-0.585-0.585
        C38.846,7.753,39.118,7.433,39.408,7.137z M43.57,20.081l0.588,0.588l-0.756,0.756l-0.68-0.68L43.57,20.081z M36.476,13.076
        l0.487,0.487l-0.646,0.646C36.352,13.829,36.408,13.451,36.476,13.076z M38.291,8.501l0.531,0.531l-1.278,1.278
        c-0.057,0.057-0.071,0.131-0.062,0.205l-0.187-0.187C37.577,9.676,37.911,9.063,38.291,8.501z M37.097,10.836l1.297,1.297
        l-1.077,1.077l-0.658-0.658c-0.019-0.019-0.046-0.017-0.068-0.028c0.022-0.098,0.037-0.197,0.061-0.294
        C36.771,11.748,36.926,11.287,37.097,10.836z">
      </path>
      <path
        d="M45.887,36.354c-0.021,0.275,0.184,0.516,0.459,0.538c0.014,0.001,0.026,0.001,0.04,0.001c0.258,0,0.478-0.199,0.497-0.461
        c0.33-4.23,3.368-7.777,7.503-8.746c0.269-0.063,0.436-0.332,0.372-0.601c-0.063-0.268-0.328-0.436-0.601-0.372
        C49.605,27.779,46.25,31.686,45.887,36.354z">
      </path>
      <path
        d="M6.7,48.711c0.031,0.025,0.071,0.021,0.106,0.036c-0.779,2.429,0.245,4.916,2.089,6.628
        c1.481,1.374,3.737,2.308,5.885,1.704c0.016,0.097,0.026,0.192,0.049,0.29c0.305,1.325,1.176,2.554,2.453,3.459
        c2.292,1.628,5.512,1.901,8.213,0.618c2.506-1.19,4.444-3.696,5.058-6.54c0.582-2.694,0.031-5.662-1.51-8.143
        c-0.056-0.09-0.14-0.148-0.23-0.187c0.248-0.189,0.471-0.386,0.664-0.575c2.815-2.765,3.946-21.12,0.389-25.484
        c0.985-2.708,1.148-5.733,0.453-8.53c-0.767-3.091-2.559-5.67-4.918-7.076c-3.051-1.817-7.234-1.544-9.483,1.063
        c-0.049,0.009-0.099,0.019-0.136,0.057c-0.053,0.053-0.071,0.123-0.067,0.192c-0.237,0.306-0.444,0.633-0.62,0.974
        c-2.591-0.572-5.429,0.233-7.306,2.113c-1.947,1.948-2.753,4.928-2.054,7.593c0.217,0.826,0.589,1.599,1.059,2.306
        c-1.86,1.281-3.199,3.313-3.607,5.535c-0.421,2.295,0.001,4.415,1.202,6.173c-1.106,0.517-2.068,1.482-2.649,2.7
        C-0.085,37.446,1.435,44.618,6.7,48.711z M2.233,35.267l1.085,1.084L2.499,37.17L2.03,36.701
        C2.058,36.193,2.126,35.714,2.233,35.267z M2.145,37.524l-0.122,0.122c-0.003-0.084-0.009-0.17-0.01-0.253L2.145,37.524z
        M2.271,39.755l0.401,0.401l-0.238,0.238C2.378,40.181,2.315,39.97,2.271,39.755z M9.234,47.091l1.099,1.099l-0.6,0.6l-0.245-0.246
        l0.223-0.223c0.098-0.098,0.098-0.256,0-0.354c-0.098-0.098-0.256-0.098-0.354,0l-0.223,0.222l-0.556-0.556
        C8.773,47.426,8.994,47.244,9.234,47.091z M8.272,48.037l0.507,0.507l-1.132,1.132l-0.024-0.024
        C7.726,49.058,7.946,48.509,8.272,48.037z M7.745,51.724c-0.123-0.437-0.212-0.648-0.189-1.433l1.224,1.224l-0.622,0.622
        L7.745,51.724z M20.16,52.206l-0.648-0.648c0.01-0.075-0.003-0.15-0.06-0.208c-0.057-0.057-0.133-0.07-0.207-0.06l-0.158-0.158
        c0.479,0.281,1.002,0.481,1.545,0.602L20.16,52.206z M18.149,50.902l0.699,0.699l-0.954,0.954
        c-0.006,0.006-0.004,0.015-0.009,0.022l-0.57-0.57C17.587,51.62,17.87,51.255,18.149,50.902z M17.034,52.432l1.047,1.047
        l-1.334,1.333l-0.639-0.639c0.07-0.182,0.143-0.356,0.216-0.512C16.526,53.235,16.774,52.828,17.034,52.432z M15.845,57.262
        l0.57,0.57c0.037,0.037,0.086,0.046,0.134,0.055l-0.316,0.316C16.065,57.899,15.93,57.586,15.845,57.262z M26.248,45.94
        l-0.683-0.684l0.957-0.957l0.876,0.876l-0.411,0.411c-0.098,0.098-0.098,0.256,0,0.354c0.097,0.097,0.255,0.098,0.354,0
        l0.411-0.412l0.331,0.332c-1.282,0.899-2.363,0.899-3.447,0.325l0.576-0.576l0.683,0.684c0.097,0.097,0.255,0.098,0.354,0
        C26.346,46.196,26.346,46.037,26.248,45.94z M27.538,43.283l0.876,0.876l-0.662,0.663l-0.876-0.876L27.538,43.283z M29.347,44.385
        l-0.226-0.226l0.518-0.518C29.545,43.916,29.447,44.165,29.347,44.385z M29.05,44.796c0.019,0.019,0.046,0.017,0.068,0.028
        c-0.111,0.188-0.225,0.35-0.343,0.465c-0.083,0.081-0.184,0.172-0.293,0.264l-0.378-0.377l0.663-0.663L29.05,44.796z
        M30.461,40.099l-0.11-0.11l0.152-0.152C30.49,39.925,30.475,40.011,30.461,40.099z M21.357,4.886
        c-0.097-0.062-0.221-0.065-0.306,0.02L20.637,5.32l-0.501-0.501c0.357-0.053,0.721-0.071,1.088-0.067L21.357,4.886z M19.31,6.647
        l-0.438-0.438l0.341-0.341c0.098-0.098,0.098-0.256,0-0.353c-0.098-0.098-0.256-0.098-0.354,0l-0.341,0.341l-0.382-0.381
        c0.442-0.237,0.919-0.408,1.417-0.529l0.728,0.728L19.31,6.647z M17.699,5.743l0.466,0.466l-0.927,0.927l-0.534-0.534
        C17.16,6.078,17.348,5.976,17.699,5.743z M16.261,10.767l-0.857-0.856c0.021-0.499,0.117-0.998,0.278-1.483l1.459,1.459
        L16.261,10.767z M15.437,10.65l0.471,0.471l-0.314,0.314C15.519,11.179,15.465,10.919,15.437,10.65z M16.334,8.373l-0.452-0.452
        c0.143-0.321,0.319-0.624,0.523-0.912l0.48,0.48L16.34,8.034C16.247,8.128,16.248,8.275,16.334,8.373z M8.384,10.146l1.025,1.025
        l-1.557,1.558l-0.716-0.716C7.447,11.328,7.864,10.695,8.384,10.146z M6.514,15.399l1.187,1.187l-0.764,0.764
        c-0.089-0.229-0.173-0.46-0.236-0.699C6.594,16.24,6.541,15.82,6.514,15.399z M8.476,21.068l-0.226,0.226l-1.109-1.109
        c0.083-0.062,0.17-0.118,0.255-0.176C7.726,20.391,8.082,20.751,8.476,21.068z M4.38,28.686c-0.149-0.452-0.253-0.921-0.307-1.406
        l0.015-0.015l0.929,0.929c0.084,0.084,0.197,0.103,0.319,0.014l-0.717,0.717L4.38,28.686z M4.029,26.498
        c-0.003-0.511,0.043-1.036,0.142-1.572c0.02-0.107,0.052-0.212,0.076-0.318l0.895,0.895l-1.054,1.055L4.029,26.498z M5.143,22.402
        l0.286,0.285L4.576,23.54C4.732,23.145,4.924,22.766,5.143,22.402z M5.684,31.547c0.007,0.053,0.02,0.106,0.061,0.147l0.708,0.709
        L5.825,33.03l-0.317-0.317l0.146-0.146c0.098-0.098,0.098-0.256,0-0.354c-0.098-0.098-0.256-0.098-0.353,0L5.155,32.36l-0.47-0.47
        C5.006,31.726,5.341,31.606,5.684,31.547z M6.267,31.509c0.313,0.009,0.623,0.063,0.916,0.163l-0.377,0.376L6.267,31.509z
        M4.242,32.155l0.559,0.559l-0.747,0.747l-0.607-0.607C3.69,32.585,3.957,32.35,4.242,32.155z M3.129,33.243L3.7,33.814
        l-0.302,0.302c-0.098,0.098-0.098,0.256,0,0.353c0.097,0.097,0.255,0.098,0.354,0l0.302-0.302l0.552,0.552
        c0.097,0.097,0.255,0.098,0.354,0c0.098-0.098,0.098-0.256,0-0.353l-0.552-0.552l0.747-0.747l0.567,0.567
        c0.097,0.097,0.255,0.098,0.353,0c0.057-0.057,0.07-0.133,0.061-0.207l0.67-0.67l0.19,0.19c0.099,0.099,0.257,0.097,0.353,0
        c0.098-0.098,0.098-0.256,0-0.354l-0.19-0.19l0.512-0.512c0.557,0.303,1.004,0.764,1.208,1.323c0.026,0.071,0.069,0.13,0.119,0.18
        c-0.867,0.779-1.346,2.051-1.272,3.448c0.065,1.241,0.516,2.432,0.913,3.483c0.1,0.262,0.391,0.388,0.645,0.291
        c0.259-0.098,0.389-0.386,0.291-0.645c-0.174-0.46-0.346-0.928-0.494-1.401l1.026-1.026l0.522,0.522
        c0.097,0.097,0.255,0.098,0.353,0c0.098-0.098,0.098-0.256,0-0.354l-0.522-0.522l0.799-0.799c0.098-0.098,0.098-0.256,0-0.354
        c-0.008-0.008-0.02-0.005-0.028-0.012c-0.007-0.052-0.02-0.104-0.06-0.144l-0.746-0.745l0.58-0.579
        c0.03-0.03,0.033-0.07,0.045-0.108l0.824,0.824c-0.059,0.096-0.061,0.218,0.022,0.301c0.101,0.101,0.199,0.084,0.301,0.022
        l0.083,0.083c0.097,0.097,0.255,0.098,0.354,0c0.098-0.098,0.098-0.256,0-0.354l-0.067-0.067l0.69-0.69l0.713,0.713
        c0.099,0.099,0.257,0.096,0.353,0c0.098-0.098,0.098-0.256,0-0.353l-0.713-0.714l0.174-0.174c0.63,0.299,1.237,0.669,1.828,1.041
        c0.234,0.146,0.543,0.079,0.689-0.157c0.148-0.234,0.077-0.542-0.156-0.689c-1.361-0.856-3.88-2.536-6.336-1.387
        c-0.595-1.589-2.463-2.593-4.275-2.292c-0.053,0.009-0.103,0.027-0.156,0.038c-0.206-0.277-0.385-0.567-0.545-0.866
        c0.06-0.003,0.12-0.023,0.166-0.069c0.098-0.098,0.098-0.256,0-0.354l-0.028-0.028l1.29-1.29c0.098-0.098,0.098-0.256,0-0.353
        c-0.098-0.098-0.256-0.098-0.353,0l-0.524,0.524c0.071-0.098,0.074-0.231-0.014-0.319l-0.928-0.928l1.073-1.074
        c0.094,0.051,0.181,0.081,0.289-0.027c0.08-0.08,0.077-0.194,0.027-0.289l0.331-0.331c0.098-0.098,0.098-0.256,0-0.354
        c-0.098-0.098-0.256-0.098-0.353,0L5.496,25.15l-1.073-1.073c0.046,0.038,0.099,0.064,0.155,0.064c0.064,0,0.128-0.024,0.177-0.073
        l1.027-1.027l0.715,0.715c0.096,0.096,0.255,0.099,0.354,0c0.098-0.098,0.098-0.256,0-0.354l-0.716-0.715l0.585-0.585
        c0.098-0.098,0.098-0.256,0-0.353c-0.098-0.098-0.256-0.098-0.353,0l-0.585,0.585l-0.367-0.367
        c0.379-0.546,0.832-1.036,1.337-1.467l1.146,1.146l-1.129,1.129c-0.098,0.098-0.098,0.256,0,0.353c0.097,0.097,0.255,0.098,0.353,0
        L8.251,22l0.398,0.398c0.099,0.099,0.257,0.096,0.354,0c0.098-0.098,0.098-0.256,0-0.354l-0.398-0.398l0.284-0.285
        c0.72,0.506,1.513,0.908,2.365,1.146c1.401,0.39,3.006,0.295,3.971-0.777c0.185-0.205,0.168-0.521-0.038-0.706
        c-0.205-0.183-0.521-0.167-0.706,0.038c-0.693,0.771-1.983,0.753-2.957,0.482c-1.908-0.533-3.515-1.934-4.369-3.709
        c0.001-0.001,0.004-0.001,0.005-0.002l0.895-0.895l0.203,0.203c0.097,0.097,0.255,0.098,0.353,0c0.098-0.098,0.098-0.256,0-0.354
        l-0.202-0.202l1.144-1.144c0.098-0.098,0.098-0.256,0-0.354c-0.098-0.098-0.256-0.098-0.354,0l-1.144,1.144L6.5,14.678
        c0.029-0.739,0.177-1.469,0.431-2.163l0.568,0.568l-0.402,0.402c-0.098,0.098-0.098,0.256,0,0.354c0.097,0.097,0.255,0.098,0.353,0
        l0.402-0.402l1.325,1.325c0.097,0.097,0.255,0.098,0.354,0c0.098-0.098,0.098-0.256,0-0.354l-1.325-1.325l1.557-1.557l0.46,0.46
        c0.097,0.097,0.255,0.098,0.354,0c0.098-0.098,0.098-0.256,0-0.354l-0.46-0.46l0.489-0.489c0.098-0.098,0.098-0.256,0-0.354
        c-0.098-0.098-0.256-0.098-0.354,0l-0.49,0.49L8.745,9.801c0.358-0.324,0.742-0.617,1.159-0.856l1.734,1.734l-0.489,0.489
        c-0.098,0.098-0.098,0.256,0,0.354c0.097,0.097,0.255,0.098,0.353,0l1.65-1.651c0.098-0.098,0.098-0.256,0-0.354
        c-0.098-0.098-0.256-0.098-0.353,0l-0.808,0.808l-1.614-1.614c0.454-0.217,0.927-0.387,1.416-0.503L11.15,8.852
        c-0.098,0.098-0.098,0.256,0,0.353c0.099,0.099,0.257,0.096,0.353,0l0.721-0.721l1.243,1.243c0.097,0.097,0.255,0.098,0.353,0
        c0.098-0.098,0.098-0.256,0-0.353l-1.243-1.243l0.067-0.067l0.403,0.25c0.116,0.072,0.272,0.037,0.344-0.081
        c0.045-0.073,0.036-0.153,0.005-0.226c0.438-0.002,0.874,0.05,1.306,0.133c-0.569,1.734-0.398,3.668,0.652,5.12
        c0.161,0.224,0.477,0.273,0.698,0.111c0.224-0.162,0.274-0.475,0.112-0.698c-0.16-0.221-0.285-0.461-0.394-0.709l0.515-0.515
        c0.089,0.037,0.16,0.073,0.268-0.035c0.074-0.074,0.074-0.177,0.035-0.268l1.782-1.782c0.098-0.098,0.098-0.256,0-0.353
        c-0.098-0.098-0.256-0.098-0.354,0l-0.523,0.523l-1.139-1.139c0.116,0.101,0.253,0.079,0.339-0.006l0.545-0.545l0.454,0.454
        c0.097,0.097,0.255,0.098,0.353,0c0.098-0.098,0.098-0.256,0-0.353l-0.454-0.454l0.927-0.927l0.734,0.734
        c0.097,0.097,0.255,0.098,0.354,0c0.076-0.075,0.074-0.181,0.033-0.273l0.997-0.997l0.112,0.112c0.097,0.097,0.255,0.098,0.353,0
        c0.098-0.098,0.098-0.256,0-0.354L20.99,5.674l0.414-0.415c0.085-0.084,0.082-0.209,0.02-0.306l0.782,0.782
        c0.097,0.097,0.255,0.098,0.354,0c0.098-0.098,0.098-0.256,0-0.354l-0.589-0.589c1.007,0.116,2.012,0.439,2.918,0.979
        c2.13,1.269,3.756,3.623,4.459,6.457c0.619,2.49,0.501,5.172-0.311,7.608c-0.172-0.097-0.344-0.186-0.513-0.261
        c-1.365-0.609-3.053-0.334-4.356,0.595l-2.434-1.906c-0.041-0.206-0.199-0.303-0.398-0.313c0.325-0.828,0.42-1.651,0.426-2.281
        c0.008-1.043-0.193-2.152-0.635-3.492c-0.087-0.262-0.371-0.406-0.631-0.319c-0.263,0.086-0.405,0.369-0.318,0.631
        c0.405,1.234,0.591,2.242,0.584,3.171c-0.023,2.67-1.72,4.245-3.391,4.204c-0.27,0.008-0.504,0.212-0.512,0.488
        c-0.007,0.276,0.212,0.505,0.488,0.512c1.289,0.024,2.67-0.663,3.537-2.025c0.025,0.032,0.048,0.067,0.081,0.092l2.444,1.914
        c-0.093,0.1-0.192,0.193-0.277,0.302c-1.086,1.394-1.521,3.402-1.196,5.507c0.042,0.273,0.303,0.459,0.57,0.418
        c0.274-0.042,0.46-0.298,0.418-0.57c-0.018-0.119-0.027-0.237-0.04-0.355c0.032-0.012,0.068-0.013,0.093-0.039l0.455-0.455
        l0.302,0.302c0.099,0.099,0.257,0.096,0.354,0c0.098-0.098,0.098-0.256,0-0.354l-0.302-0.302l0.662-0.662l0.156,0.156
        c0.097,0.097,0.255,0.098,0.354,0c0.098-0.098,0.098-0.256,0-0.354l-0.156-0.156l0.344-0.344c0.098-0.098,0.098-0.256,0-0.354
        c-0.098-0.098-0.256-0.098-0.353,0l-0.344,0.344l-1.132-1.132c0.163-0.378,0.363-0.728,0.605-1.038
        c0.026-0.033,0.058-0.06,0.085-0.093l0.224,0.224l-0.477,0.478c-0.098,0.098-0.098,0.256,0,0.354c0.097,0.097,0.255,0.098,0.354,0
        l0.477-0.478l0.48,0.48c0.099,0.099,0.257,0.096,0.354,0c0.098-0.098,0.098-0.256,0-0.354l-0.48-0.48l0.459-0.459l0.68,0.681
        c0.097,0.097,0.255,0.098,0.354,0c0.098-0.098,0.098-0.256,0-0.354l-0.681-0.681l0.26-0.26c0.098-0.098,0.098-0.256,0-0.354
        c-0.035-0.034-0.08-0.041-0.125-0.052c0.274-0.085,0.552-0.127,0.828-0.147l0.631,0.631l-0.748,0.748
        c-0.098,0.098-0.098,0.256,0,0.354c0.096,0.096,0.255,0.099,0.354,0l0.748-0.748l0.289,0.289c0.099,0.099,0.257,0.096,0.354,0
        c0.098-0.098,0.098-0.256,0-0.354l-0.289-0.289l0.093-0.093c0.082-0.082,0.079-0.201,0.024-0.297
        c0.382,0.174,0.79,0.396,1.005,0.727c2.158,3.343,2.258,12.245,1.375,18.294c-0.012-0.023-0.01-0.05-0.029-0.069
        c-0.098-0.098-0.256-0.098-0.353,0l-0.169,0.169l-0.625-0.626c-0.098-0.097-0.256-0.098-0.354,0c-0.098,0.098-0.098,0.256,0,0.354
        l0.625,0.626l-0.743,0.743l-0.224-0.224c-0.098-0.098-0.256-0.098-0.354,0c-0.098,0.098-0.098,0.256,0,0.354l0.224,0.224
        l-0.492,0.492c-0.098,0.098-0.098,0.256,0,0.354c0.099,0.099,0.257,0.096,0.354,0l0.492-0.492l0.763,0.763
        c0.097,0.097,0.255,0.098,0.354,0c0.098-0.098,0.098-0.256,0-0.354l-0.763-0.763l0.743-0.743l0.252,0.252
        c0.033,0.033,0.078,0.039,0.121,0.05c-0.162,0.913-0.348,1.735-0.553,2.436c-0.098-0.081-0.24-0.083-0.332,0.009l-0.717,0.717
        l-1.213-1.214c-0.098-0.098-0.256-0.098-0.354,0c-0.091,0.091-0.089,0.233-0.01,0.331l-0.669,0.669l-0.251-0.251
        c-0.098-0.098-0.256-0.098-0.353,0c-0.098,0.098-0.098,0.256,0,0.354l0.251,0.251l-0.957,0.957l-0.759-0.759
        c-0.098-0.098-0.256-0.098-0.354,0c-0.098,0.098-0.098,0.256,0,0.354l0.759,0.759l-0.659,0.659
        c-0.247-0.172-0.488-0.365-0.716-0.598c-0.726-0.742-1.266-1.68-1.787-2.587c-0.139-0.24-0.446-0.321-0.683-0.184
        c-0.239,0.138-0.322,0.443-0.185,0.683c0.553,0.961,1.125,1.955,1.94,2.788c1.495,1.524,3.434,2.084,5.36,1.009
        c0,0.091,0.015,0.182,0.066,0.265c1.406,2.263,1.91,4.962,1.383,7.405c-0.551,2.546-2.278,4.787-4.511,5.847
        c-2.313,1.1-5.208,0.887-7.205-0.53c-0.556-0.394-1.015-0.859-1.368-1.363l2-2c0.098-0.098,0.098-0.256,0-0.354
        c-0.098-0.097-0.256-0.099-0.354,0l-1.317,1.316c-0.009-0.048-0.019-0.097-0.055-0.134l-1.057-1.057
        c-0.03-0.611,0.064-1.198,0.217-1.721l0.465,0.465l-0.303,0.303c-0.098,0.098-0.098,0.256,0,0.354c0.099,0.099,0.257,0.096,0.354,0
        l0.303-0.303l0.36,0.36c0.097,0.097,0.255,0.098,0.354,0c0.098-0.098,0.098-0.256,0-0.354l-0.36-0.36l1.334-1.333l0.289,0.289
        c0.097,0.097,0.255,0.098,0.354,0c0.098-0.098,0.098-0.256,0-0.354l-0.852-0.851c0.006-0.005,0.016-0.003,0.022-0.009l0.954-0.954
        l0.623,0.623c-0.053,0.095-0.056,0.212,0.025,0.293c0.096,0.096,0.255,0.099,0.354,0l0.885-0.885
        c0.047-0.047,0.068-0.108,0.07-0.169c0.776,0.093,1.461,0.083,2.331-0.227c0.261-0.093,0.397-0.378,0.304-0.639
        c-0.092-0.26-0.381-0.397-0.638-0.304c-1.45,0.515-3.172,0.15-4.289-0.907c-1.115-1.058-1.572-2.76-1.136-4.234
        c0.078-0.265-0.073-0.543-0.338-0.622c-0.263-0.078-0.543,0.073-0.621,0.337c-0.467,1.581-0.104,3.371,0.898,4.673
        c-0.772,0.971-1.648,2.072-2.248,3.339c-0.342,0.723-0.687,1.725-0.715,2.83c-1.805,0.618-3.852-0.237-5.13-1.422
        c-0.557-0.518-1.004-1.107-1.344-1.725l0.127,0.127c0.097,0.097,0.255,0.098,0.354,0c0.098-0.098,0.098-0.256,0-0.354l-0.201-0.201
        l1.432-1.432c0.098-0.098,0.098-0.256,0-0.354c-0.098-0.098-0.256-0.098-0.353,0l-0.457,0.457l-1.132-1.132l1.132-1.132
        l0.511,0.511c0.097,0.097,0.255,0.098,0.354,0c0.063-0.063,0.07-0.147,0.052-0.228l1.146-1.147c0.098-0.098,0.098-0.256,0-0.354
        c-0.098-0.098-0.256-0.098-0.353,0l-0.156,0.157l-0.992-0.992c0.613-0.273,1.29-0.37,1.908-0.231
        c0.271,0.062,0.537-0.108,0.598-0.377c0.061-0.269-0.107-0.537-0.377-0.598c-1.614-0.366-3.599,0.378-4.614,2.193
        c-2.187-1.739-3.819-4.188-4.632-6.872l0.449-0.449l0.707,0.707c0.099,0.099,0.257,0.096,0.354,0c0.098-0.098,0.098-0.256,0-0.354
        l-0.707-0.707l1.174-1.175c0.098-0.098,0.098-0.256,0-0.354c-0.098-0.098-0.256-0.098-0.353,0l-1.174,1.174l-0.885-0.885
        c-0.098-0.696-0.053-0.163-0.102-0.895c0.122,0.095,0.243,0.072,0.326-0.011l0.134-0.134l0.74,0.74
        c0.097,0.097,0.255,0.098,0.354,0c0.098-0.098,0.098-0.256,0-0.354l-0.74-0.74l0.819-0.819l0.073,0.073
        c0.097,0.097,0.255,0.098,0.353,0c0.098-0.098,0.098-0.256,0-0.354l-0.073-0.073l0.586-0.586c0.098-0.098,0.098-0.256,0-0.354
        c-0.098-0.098-0.256-0.098-0.353,0l-0.586,0.586L2.39,34.716c0.077-0.228,0.152-0.458,0.252-0.667
        C2.779,33.76,2.946,33.493,3.129,33.243z M12.228,33.54l0.675,0.675l-0.69,0.69l-1.35-1.35
        C11.285,33.465,11.747,33.464,12.228,33.54z M13.183,33.788c0.036,0.013,0.074,0.023,0.11,0.037l-0.037,0.037L13.183,33.788z
        M10.314,33.713l0.446,0.446c-0.038,0.012-0.078,0.015-0.108,0.045l-0.58,0.579l-0.522-0.522c0.058-0.061,0.105-0.135,0.168-0.188
        C9.894,33.927,10.095,33.808,10.314,33.713z M9.461,35.749c0.099,0.099,0.257,0.096,0.354,0l0.258-0.258l0.691,0.69l-0.656,0.656
        l-1.254-1.254c0.086-0.342,0.206-0.661,0.378-0.933l0.487,0.487l-0.258,0.258C9.364,35.493,9.364,35.651,9.461,35.749z
        M8.725,36.789c-0.011-0.208,0.008-0.405,0.025-0.603l1.004,1.004L8.93,38.015C8.828,37.609,8.747,37.201,8.725,36.789z
        M27.698,20.551l-0.248-0.248c0.151,0.025,0.297,0.065,0.44,0.113c-0.034,0.012-0.072,0.014-0.099,0.041L27.698,20.551z
        M24.347,21.305c0.161-0.149,0.336-0.281,0.517-0.4l0.18,0.18l-0.458,0.459L24.347,21.305z M25.314,20.648
        c0.092-0.045,0.187-0.078,0.282-0.115l-0.199,0.199L25.314,20.648z M22.839,25.062l0.242,0.242l-0.239,0.239
        C22.837,25.381,22.833,25.22,22.839,25.062z M22.891,24.407c0.048-0.379,0.124-0.745,0.234-1.09l0.971,0.971l-0.662,0.662
        L22.891,24.407z">
      </path>
      <path
        d="M19.115,36.431c0.02,0.262,0.239,0.461,0.497,0.461c0.014,0,0.026,0,0.04-0.001c0.275-0.021,0.48-0.262,0.459-0.537
        c-0.175-2.26-1.084-4.452-2.56-6.172c-1.476-1.72-3.505-2.953-5.711-3.47c-0.271-0.064-0.538,0.105-0.601,0.372
        c-0.063,0.269,0.104,0.538,0.372,0.601c2.002,0.469,3.841,1.587,5.18,3.147C18.131,32.393,18.956,34.382,19.115,36.431z">
      </path>
      <path
        d="M40.257,21.78l-0.823,0.823c-0.098,0.098-0.098,0.256,0,0.353c0.097,0.097,0.255,0.098,0.354,0l0.823-0.823
        c0.098-0.098,0.098-0.256,0-0.354C40.513,21.682,40.355,21.682,40.257,21.78z">
      </path>
    </g>
  </g>
  <g id="SvgjsG1205" featurekey="ewgXDI-0" transform="matrix(2.025931993104751,0,0,2.025931993104751,-1.418152008757464,132.12803921595471)" fill="#ffffff">
    <path
      d="M8.5 9.6 l3.16 0 l0 10.4 l-3.16 0 l0 -1.04 c-0.14 0.36 -1.08 1.24 -2.68 1.24 c-2.38 0 -5.12 -1.7 -5.12 -5.42 c0 -3.58 2.74 -5.36 5.12 -5.36 c1.6 0 2.54 0.92 2.68 1.14 l0 -0.96 z M6.28 17.42 c1.3 0 2.36 -0.9 2.36 -2.64 c0 -1.68 -1.06 -2.58 -2.36 -2.58 c-1.36 0 -2.52 0.92 -2.52 2.58 c0 1.72 1.16 2.64 2.52 2.64 z M16.86 5.859999999999999 l0 14.14 l-3.16 0 l0 -14.14 l3.16 0 z M32.8 9.44 c2.22 0 4.18 1.44 4.18 4.96 l0 5.6 l-3.16 0 l0 -5.5 c0 -1.32 -0.56 -2.32 -2.02 -2.32 c-1.22 0 -2.04 1.08 -2.28 2.04 l0 5.78 l-3.16 0 l0 -5.5 c0 -1.32 -0.82 -2.32 -2.02 -2.32 c-1.3 0 -2.08 0.88 -2.28 2.04 l0 5.78 l-3.16 0 l0 -10.4 l3.16 0 l0 1.9 c0.04 -0.48 1.06 -2.06 3.1 -2.06 c1.5 0 2.94 0.8 3.8 2.26 c0.24 -0.56 1.44 -2.26 3.84 -2.26 z M46.379999999999995 9.6 l3.16 0 l0 10.4 l-3.16 0 l0 -1.04 c-0.14 0.36 -1.08 1.24 -2.68 1.24 c-2.38 0 -5.12 -1.7 -5.12 -5.42 c0 -3.58 2.74 -5.36 5.12 -5.36 c1.6 0 2.54 0.92 2.68 1.14 l0 -0.96 z M44.16 17.42 c1.3 0 2.36 -0.9 2.36 -2.64 c0 -1.68 -1.06 -2.58 -2.36 -2.58 c-1.36 0 -2.52 0.92 -2.52 2.58 c0 1.72 1.16 2.64 2.52 2.64 z M58.26 9.44 c0.28 0 0.56 0 0.82 0.06 l0 3.02 c-0.24 -0.06 -0.52 -0.06 -0.72 -0.06 c-1.92 0 -3.46 1.38 -3.62 3.3 l0 4.24 l-3.16 0 l0 -10.4 l3.16 0 l0 2.54 c0.48 -1.56 1.68 -2.7 3.52 -2.7 z M65.96 17.36 c0.56 0 0.96 -0.08 1.4 -0.2 l0 2.62 c-0.44 0.2 -1.16 0.34 -2.22 0.34 c-1.74 0 -3.2 -0.58 -3.2 -3.78 l0 -4.14 l-1.46 0 l0 -2.6 l1.46 0 l0 -2.44 l3.16 0 l0 2.44 l2.22 0 l0 2.6 l-2.22 0 l0 4.14 c0 0.46 0.12 1.02 0.86 1.02 z M74.19999999999999 9.42 c2.36 0 5.48 1.78 5.48 5.42 c0 3.66 -3.12 5.36 -5.48 5.36 s-5.48 -1.7 -5.48 -5.36 c0 -3.64 3.12 -5.42 5.48 -5.42 z M74.19999999999999 12.2 c-1.2 0 -2.42 0.92 -2.42 2.64 c0 1.66 1.22 2.58 2.42 2.58 s2.44 -0.92 2.44 -2.58 c0 -1.72 -1.24 -2.64 -2.44 -2.64 z M94.88 9.6 l3.16 0 l0 10.4 l-3.16 0 l0 -1.04 c-0.14 0.36 -1.08 1.24 -2.68 1.24 c-2.38 0 -5.12 -1.7 -5.12 -5.42 c0 -3.58 2.74 -5.36 5.12 -5.36 c1.6 0 2.54 0.92 2.68 1.14 l0 -0.96 z M92.66 17.42 c1.3 0 2.36 -0.9 2.36 -2.64 c0 -1.68 -1.06 -2.58 -2.36 -2.58 c-1.36 0 -2.52 0.92 -2.52 2.58 c0 1.72 1.16 2.64 2.52 2.64 z M105.02 12.879999999999999 c-0.28 -0.72 -0.7 -0.96 -1.16 -0.96 c-0.42 0 -0.84 0.24 -0.84 0.64 c0 0.38 0.24 0.6 0.7 0.76 l1.32 0.46 c1.48 0.54 2.98 1.08 2.98 3.16 c0 2.1 -2.1 3.3 -4.26 3.3 c-1.94 0 -3.76 -1.14 -4.2 -2.96 l2.48 -0.78 c0.26 0.58 0.72 1.24 1.72 1.24 c0.68 0 1.12 -0.44 1.12 -0.84 c0 -0.2 -0.16 -0.46 -0.66 -0.66 l-1.22 -0.44 c-2.08 -0.76 -3.06 -1.82 -3.06 -3.3 c0 -1.94 1.8 -3.08 3.78 -3.08 c2.02 0 3.36 1.1 3.96 2.76 z M114.58 12.879999999999999 c-0.28 -0.72 -0.7 -0.96 -1.16 -0.96 c-0.42 0 -0.84 0.24 -0.84 0.64 c0 0.38 0.24 0.6 0.7 0.76 l1.32 0.46 c1.48 0.54 2.98 1.08 2.98 3.16 c0 2.1 -2.1 3.3 -4.26 3.3 c-1.94 0 -3.76 -1.14 -4.2 -2.96 l2.48 -0.78 c0.26 0.58 0.72 1.24 1.72 1.24 c0.68 0 1.12 -0.44 1.12 -0.84 c0 -0.2 -0.16 -0.46 -0.66 -0.66 l-1.22 -0.44 c-2.08 -0.76 -3.06 -1.82 -3.06 -3.3 c0 -1.94 1.8 -3.08 3.78 -3.08 c2.02 0 3.36 1.1 3.96 2.76 z M122.36000000000001 5.859999999999999 l0 2.66 l-3.16 0 l0 -2.66 l3.16 0 z M122.36000000000001 9.6 l0 10.4 l-3.16 0 l0 -10.4 l3.16 0 z M129.34 12.879999999999999 c-0.28 -0.72 -0.7 -0.96 -1.16 -0.96 c-0.42 0 -0.84 0.24 -0.84 0.64 c0 0.38 0.24 0.6 0.7 0.76 l1.32 0.46 c1.48 0.54 2.98 1.08 2.98 3.16 c0 2.1 -2.1 3.3 -4.26 3.3 c-1.94 0 -3.76 -1.14 -4.2 -2.96 l2.48 -0.78 c0.26 0.58 0.72 1.24 1.72 1.24 c0.68 0 1.12 -0.44 1.12 -0.84 c0 -0.2 -0.16 -0.46 -0.66 -0.66 l-1.22 -0.44 c-2.08 -0.76 -3.06 -1.82 -3.06 -3.3 c0 -1.94 1.8 -3.08 3.78 -3.08 c2.02 0 3.36 1.1 3.96 2.76 z M139.02 17.36 c0.56 0 0.96 -0.08 1.4 -0.2 l0 2.62 c-0.44 0.2 -1.16 0.34 -2.22 0.34 c-1.74 0 -3.2 -0.58 -3.2 -3.78 l0 -4.14 l-1.46 0 l0 -2.6 l1.46 0 l0 -2.44 l3.16 0 l0 2.44 l2.22 0 l0 2.6 l-2.22 0 l0 4.14 c0 0.46 0.12 1.02 0.86 1.02 z M149.57999999999998 9.6 l3.16 0 l0 10.4 l-3.16 0 l0 -1.04 c-0.14 0.36 -1.08 1.24 -2.68 1.24 c-2.38 0 -5.12 -1.7 -5.12 -5.42 c0 -3.58 2.74 -5.36 5.12 -5.36 c1.6 0 2.54 0.92 2.68 1.14 l0 -0.96 z M147.35999999999999 17.42 c1.3 0 2.36 -0.9 2.36 -2.64 c0 -1.68 -1.06 -2.58 -2.36 -2.58 c-1.36 0 -2.52 0.92 -2.52 2.58 c0 1.72 1.16 2.64 2.52 2.64 z M161.16 9.44 c1.94 0 3.92 1.3 3.92 4.6 l0 5.96 l-3.16 0 l0 -5.74 c0 -1.58 -0.54 -2.08 -1.54 -2.08 c-1.42 0 -2.24 1.38 -2.44 1.98 l0 5.84 l-3.16 0 l0 -10.4 l3.16 0 l0 1.8 c0.2 -0.5 1.26 -1.96 3.22 -1.96 z M172.06 17.36 c0.56 0 0.96 -0.08 1.4 -0.2 l0 2.62 c-0.44 0.2 -1.16 0.34 -2.22 0.34 c-1.74 0 -3.2 -0.58 -3.2 -3.78 l0 -4.14 l-1.46 0 l0 -2.6 l1.46 0 l0 -2.44 l3.16 0 l0 2.44 l2.22 0 l0 2.6 l-2.22 0 l0 4.14 c0 0.46 0.12 1.02 0.86 1.02 z">
    </path>
  </g>
</svg>